<svg width="24" height="28" viewBox="0 0 24 28" fill="none" xmlns="http://www.w3.org/2000/svg">
<path d="M22.9917 21.8205C22.5701 22.7987 22.071 23.6992 21.4928 24.5271C20.7046 25.6557 20.0592 26.4369 19.5619 26.8707C18.7909 27.5828 17.9648 27.9475 17.0803 27.9682C16.4453 27.9682 15.6794 27.7867 14.788 27.4186C13.8936 27.0522 13.0717 26.8707 12.3202 26.8707C11.532 26.8707 10.6867 27.0522 9.78248 27.4186C8.87692 27.7867 8.14742 27.9786 7.58966 27.9976C6.74142 28.0339 5.89592 27.6588 5.05198 26.8707C4.51332 26.3989 3.83958 25.59 3.03246 24.4441C2.16648 23.2205 1.45453 21.8015 0.896779 20.1838C0.299443 18.4364 0 16.7444 0 15.1062C0 13.2298 0.403731 11.6114 1.2124 10.2551C1.84794 9.16575 2.69343 8.30642 3.75164 7.67557C4.80984 7.04473 5.95323 6.72326 7.18456 6.70269C7.8583 6.70269 8.74183 6.91199 9.83979 7.32334C10.9346 7.73607 11.6376 7.94537 11.9459 7.94537C12.1763 7.94537 12.9573 7.70063 14.2812 7.21272C15.5332 6.76024 16.5898 6.57289 17.4554 6.64669C19.8011 6.83681 21.5633 7.76545 22.7353 9.43848C20.6374 10.715 19.5997 12.503 19.6204 14.7967C19.6393 16.5833 20.2847 18.07 21.553 19.2505C22.1278 19.7983 22.7697 20.2218 23.4839 20.5225C23.329 20.9736 23.1655 21.4057 22.9917 21.8205ZM17.612 0.560159C17.612 1.96048 17.1026 3.26795 16.0873 4.47814C14.862 5.91681 13.3799 6.74814 11.7727 6.61696C11.7523 6.44897 11.7404 6.27216 11.7404 6.08636C11.7404 4.74206 12.3231 3.30338 13.3579 2.12707C13.8745 1.53149 14.5316 1.03627 15.3284 0.641218C16.1234 0.252064 16.8755 0.0368538 17.5828 0C17.6034 0.187201 17.612 0.374414 17.612 0.560141V0.560159Z" fill="white"/>
</svg>
