<svg width="28" height="28" viewBox="0 0 28 28" fill="none" xmlns="http://www.w3.org/2000/svg">
<path fill-rule="evenodd" clip-rule="evenodd" d="M27.4395 14.3177C27.4395 13.325 27.3505 12.3705 27.185 11.4541H13.9998V16.8695H21.5342C21.2096 18.6194 20.2233 20.1022 18.7406 21.0949V24.6075H23.2651C25.9123 22.1703 27.4395 18.5813 27.4395 14.3177Z" fill="#4285F4"/>
<path fill-rule="evenodd" clip-rule="evenodd" d="M13.9996 27.9995C17.7796 27.9995 20.9486 26.7459 23.2649 24.6077L18.7404 21.0951C17.4868 21.935 15.8832 22.4314 13.9996 22.4314C10.3533 22.4314 7.26699 19.9687 6.16609 16.6597H1.48889V20.2869C3.79249 24.8623 8.52697 27.9995 13.9996 27.9995Z" fill="#34A853"/>
<path fill-rule="evenodd" clip-rule="evenodd" d="M6.16627 16.66C5.88627 15.82 5.72719 14.9228 5.72719 14.0001C5.72719 13.0774 5.88627 12.1801 6.16627 11.3401V7.71289H1.48907C0.540901 9.60286 0 11.741 0 14.0001C0 16.2591 0.540901 18.3973 1.48907 20.2872L6.16627 16.66Z" fill="#FBBC05"/>
<path fill-rule="evenodd" clip-rule="evenodd" d="M13.9996 5.5681C16.055 5.5681 17.9005 6.27445 19.3513 7.6617L23.3667 3.64631C20.9422 1.38725 17.7732 0 13.9996 0C8.52697 0 3.79249 3.13723 1.48889 7.71261L6.16609 11.3398C7.26699 8.03079 10.3533 5.5681 13.9996 5.5681Z" fill="#EA4335"/>
</svg>
