<svg width="20" height="19" viewBox="0 0 20 19" fill="none" xmlns="http://www.w3.org/2000/svg">
<path d="M0 18.061V16.061C0 16.061 5 14.061 10 14.061C15 14.061 20 16.061 20 16.061V18.061H0ZM9.3 5.16097C8.1 1.26097 2 2.16097 2 2.16097C2 2.16097 2.2 9.96097 7.9 8.76097C7.5 5.86097 6 5.06097 6 5.06097C8.8 5.06097 9 8.46097 9 8.46097V13.061C9.3 13.061 9.7 13.061 10 13.061C10.3 13.061 10.7 13.061 11 13.061V8.86097C11 8.86097 11 4.96097 14 3.96097C14 3.96097 12 6.96097 12 8.96097C19 9.66097 19 0.0609662 19 0.0609662C19 0.0609662 10.1 -0.939034 9.3 5.16097Z" fill="white"/>
</svg>
