<svg width="28" height="31" viewBox="0 0 28 31" fill="none" xmlns="http://www.w3.org/2000/svg">
<path fill-rule="evenodd" clip-rule="evenodd" d="M7.77778 0C8.6369 0 9.33333 0.693966 9.33333 1.55V3.10353C9.79569 3.09998 10.2946 3.1 10.8337 3.1H17.1663C17.7053 3.1 18.2044 3.09998 18.6667 3.10353V1.55C18.6667 0.693966 19.3631 0 20.2222 0C21.0814 0 21.7778 0.693966 21.7778 1.55V3.29311C22.2743 3.37748 22.7438 3.50218 23.1986 3.68993C25.1045 4.47651 26.6185 5.98523 27.408 7.8842C27.7363 8.67423 27.8726 9.50857 27.9372 10.4521C28 11.3697 28 12.4972 28 13.8949V19.5354C28 21.2437 28 22.6213 27.9071 23.7364C27.8115 24.8848 27.6091 25.8926 27.1244 26.8226C26.3864 28.2381 25.2282 29.3922 23.8076 30.1275C22.8743 30.6105 21.8629 30.8121 20.7104 30.9075C19.5913 31 18.2087 31 16.4943 31H11.5057C9.79135 31 8.40867 31 7.28958 30.9075C6.13721 30.8121 5.12576 30.6105 4.19242 30.1275C2.77186 29.3922 1.61359 28.2381 0.87567 26.8226C0.39085 25.8926 0.188612 24.8848 0.0928983 23.7364C-3.05681e-05 22.6213 -1.50773e-05 21.2437 4.78211e-07 19.5354V13.895C-1.50773e-05 12.4972 -1.50725e-05 11.3697 0.0628138 10.4521C0.127416 9.50857 0.263636 8.67423 0.592045 7.8842C1.38144 5.98523 2.89557 4.47651 4.80135 3.68993C5.25624 3.50218 5.72577 3.37748 6.22222 3.29311V1.55C6.22222 0.693966 6.91868 0 7.77778 0ZM6.22222 6.47088C6.13967 6.4967 6.06353 6.5244 5.99192 6.55396C4.84846 7.0259 3.93997 7.93115 3.46634 9.07052C3.32111 9.41986 3.22051 9.87744 3.16671 10.6631C3.1337 11.1452 3.12029 11.7079 3.11483 12.4H24.8852C24.8797 11.7079 24.8663 11.1452 24.8334 10.6631C24.7795 9.87744 24.6789 9.41986 24.5336 9.07052C24.0601 7.93115 23.1515 7.0259 22.0082 6.55396C21.9364 6.5244 21.8604 6.4967 21.7778 6.47088V7.75C21.7778 8.60603 21.0814 9.3 20.2222 9.3C19.3631 9.3 18.6667 8.60603 18.6667 7.75V6.2037C18.2092 6.20014 17.6952 6.2 17.1111 6.2H10.8889C10.3047 6.2 9.79087 6.20014 9.33333 6.2037V7.75C9.33333 8.60603 8.6369 9.3 7.77778 9.3C6.91868 9.3 6.22222 8.60603 6.22222 7.75V6.47088ZM24.8889 15.5H3.11111V19.468C3.11111 21.2595 3.11236 22.5082 3.19334 23.4799C3.27278 24.433 3.42081 24.9798 3.63652 25.3935C4.07927 26.2429 4.77423 26.9353 5.62657 27.3764C6.04183 27.5914 6.59055 27.739 7.54706 27.818C8.52221 27.8988 9.77547 27.9 11.5733 27.9H16.4267C18.2246 27.9 19.4777 27.8988 20.4529 27.818C21.4094 27.739 21.9582 27.5914 22.3734 27.3764C23.2258 26.9353 23.9207 26.2429 24.3634 25.3935C24.5792 24.9798 24.7273 24.433 24.8066 23.4799C24.8876 22.5082 24.8889 21.2595 24.8889 19.468V15.5ZM15.5556 23.25C15.5556 22.3939 16.252 21.7 17.1111 21.7H20.2222C21.0814 21.7 21.7778 22.3939 21.7778 23.25C21.7778 24.1061 21.0814 24.8 20.2222 24.8H17.1111C16.252 24.8 15.5556 24.1061 15.5556 23.25Z" fill="black"/>
</svg>
