<svg width="27" height="24" viewBox="0 0 27 24" fill="none" xmlns="http://www.w3.org/2000/svg">
<path fill-rule="evenodd" clip-rule="evenodd" d="M8.86039 0.000152845C8.90687 0.000242843 8.95341 0.000317707 9 0.000317707C9.04665 0.000317707 9.09315 0.000242843 9.13965 0.000152845C9.6927 -0.000762132 10.2363 -0.00166252 10.7205 0.128084C12.0147 0.474831 13.0254 1.48561 13.3722 2.77967C13.502 3.26392 13.501 3.80752 13.5002 4.36059C13.5002 4.40707 13.5 4.45362 13.5 4.5002H25.5C26.3284 4.5002 27 5.17175 27 6.00017C27 6.82857 26.3284 7.50013 25.5 7.50013H13.5C13.5 7.54672 13.5002 7.59326 13.5002 7.63975C13.501 8.19281 13.502 8.73641 13.3722 9.22072C13.0254 10.5147 12.0147 11.5256 10.7205 11.8722C10.2363 12.002 9.6927 12.0011 9.13965 12.0002C9.09315 12.0002 9.04665 12 9 12C8.95341 12 8.90687 12.0002 8.86038 12.0002C8.3073 12.0011 7.76369 12.002 7.27943 11.8722C5.98533 11.5256 4.97452 10.5147 4.62778 9.22072C4.49802 8.7364 4.49892 8.19281 4.49985 7.63973C4.49992 7.59326 4.5 7.5467 4.5 7.50013H1.5C0.67158 7.50013 0 6.82857 0 6.00017C0 5.17175 0.67158 4.5002 1.5 4.5002H4.5C4.5 4.45362 4.49992 4.40707 4.49985 4.36059C4.49892 3.80752 4.49802 3.26392 4.62778 2.77967C4.97452 1.48561 5.98533 0.474831 7.27943 0.128084C7.76369 -0.00166252 8.3073 -0.000762132 8.86039 0.000152845ZM8.24791 3.00827C8.08792 3.01556 8.05027 3.0273 8.05589 3.02579C7.79706 3.09514 7.59491 3.2973 7.52556 3.55611C7.5243 3.56138 7.51445 3.60746 7.50803 3.74812C7.50036 3.91616 7.5 4.13787 7.5 4.5002V7.50013C7.5 7.86244 7.50036 8.08416 7.50803 8.2522C7.51532 8.41218 7.52706 8.44982 7.52556 8.44422C7.59491 8.70302 7.79706 8.90519 8.05589 8.97453C8.05027 8.97303 8.08792 8.98476 8.24791 8.99207C8.41595 8.99973 8.63766 9.00008 9 9.00008C9.3624 9.00008 9.5841 8.99973 9.7521 8.99207C9.912 8.98476 9.94965 8.97303 9.9441 8.97453C10.203 8.90519 10.4051 8.70302 10.4745 8.44422C10.473 8.44982 10.4847 8.41218 10.4919 8.2522C10.4997 8.08416 10.5 7.86244 10.5 7.50013V4.5002C10.5 4.13787 10.4997 3.91616 10.4919 3.74812C10.4847 3.58815 10.473 3.5505 10.4745 3.55611M8.24791 3.00827C8.41595 3.0006 8.63766 3.00024 9 3.00024L8.24791 3.00827ZM9 3.00024C9.3624 3.00024 9.5841 3.0006 9.7521 3.00827L9 3.00024ZM9.7521 3.00827C9.8928 3.01467 9.93885 3.02453 9.9441 3.02579L9.7521 3.00827ZM17.8603 11.9999C17.9069 12 17.9534 12 18 12C18.0466 12 18.0931 12 18.1397 11.9999C18.6927 11.999 19.2363 11.9981 19.7205 12.1278C21.0147 12.4746 22.0254 13.4853 22.3722 14.7794C22.502 15.2636 22.501 15.8072 22.5001 16.3602C22.5001 16.4067 22.5 16.4532 22.5 16.4999H25.5C26.3284 16.4999 27 17.1714 27 17.9999C27 18.8283 26.3284 19.4998 25.5 19.4998H22.5C22.5 19.5465 22.5001 19.593 22.5001 19.6395C22.501 20.1925 22.502 20.7361 22.3722 21.2204C22.0254 22.5144 21.0147 23.5253 19.7205 23.8719C19.2363 24.0017 18.6927 24.0007 18.1397 23.9998C18.0931 23.9998 18.0466 23.9997 18 23.9997C17.9534 23.9997 17.9069 23.9998 17.8603 23.9998C17.3073 24.0007 16.7637 24.0017 16.2795 23.8719C14.9853 23.5253 13.9746 22.5144 13.6278 21.2204C13.498 20.7361 13.499 20.1925 13.4999 19.6395C13.4999 19.593 13.5 19.5465 13.5 19.4998H1.5C0.67158 19.4998 0 18.8283 0 17.9999C0 17.1714 0.67158 16.4999 1.5 16.4999H13.5C13.5 16.4534 13.4999 16.4067 13.4999 16.3602C13.499 15.8072 13.498 15.2636 13.6278 14.7794C13.9746 13.4853 14.9853 12.4746 16.2795 12.1278C16.7637 11.9981 17.3073 11.999 17.8603 11.9999ZM17.2479 15.008C17.088 15.0152 17.0504 15.0269 17.0559 15.0254C16.797 15.0949 16.5949 15.2971 16.5255 15.5558C16.527 15.5503 16.5153 15.5879 16.5081 15.7478C16.5003 15.9158 16.5 16.1376 16.5 16.4999V19.4998C16.5 19.8622 16.5003 20.0839 16.5081 20.2519C16.5153 20.4119 16.527 20.4496 16.5255 20.4439C16.5949 20.7028 16.797 20.9048 17.0559 20.9743C17.0504 20.9728 17.088 20.9845 17.2479 20.9918C17.4159 20.9995 17.6376 20.9998 18 20.9998C18.3624 20.9998 18.5841 20.9995 18.7521 20.9918C18.912 20.9845 18.9496 20.9728 18.9441 20.9743C19.203 20.9048 19.4051 20.7028 19.4745 20.4439C19.473 20.4496 19.4847 20.4119 19.4919 20.2519C19.4997 20.0839 19.5 19.8622 19.5 19.4998V16.4999C19.5 16.1376 19.4997 15.9158 19.4919 15.7478C19.4847 15.5879 19.473 15.5503 19.4745 15.5558C19.4051 15.2971 19.203 15.0949 18.9441 15.0254C18.9496 15.0269 18.912 15.0152 18.7521 15.008C18.5841 15.0002 18.3624 14.9999 18 14.9999C17.6376 14.9999 17.4159 15.0002 17.2479 15.008Z" fill="#838383"/>
</svg>
