<svg width="12" height="11" viewBox="0 0 12 11" fill="none" xmlns="http://www.w3.org/2000/svg">
<path d="M6.06 9.32152L6 9.38147L5.934 9.32152C3.084 6.73787 1.2 5.02943 1.2 3.297C1.2 2.09809 2.1 1.19891 3.3 1.19891C4.224 1.19891 5.124 1.79837 5.442 2.61362H6.558C6.876 1.79837 7.776 1.19891 8.7 1.19891C9.9 1.19891 10.8 2.09809 10.8 3.297C10.8 5.02943 8.916 6.73787 6.06 9.32152ZM8.7 0C7.656 0 6.654 0.485559 6 1.24687C5.346 0.485559 4.344 0 3.3 0C1.452 0 0 1.44469 0 3.297C0 5.55695 2.04 7.40926 5.13 10.2087L6 11L6.87 10.2087C9.96 7.40926 12 5.55695 12 3.297C12 1.44469 10.548 0 8.7 0Z" fill="black"/>
</svg>
