<svg width="29" height="31" viewBox="0 0 29 31" fill="none" xmlns="http://www.w3.org/2000/svg">
<path d="M14.9055 2.96549C14.6407 2.88818 14.3594 2.88818 14.0945 2.96549C14.0184 2.98775 13.8844 3.04343 13.5995 3.2597C13.2999 3.48716 12.9331 3.81268 12.3615 4.32209L4.76402 11.0929C3.83262 11.9229 3.56858 12.1733 3.38501 12.4501C3.20843 12.7164 3.07689 13.0101 2.99567 13.3193C2.91124 13.6409 2.90008 14.0049 2.90008 15.2544V22.5246C2.90008 23.7908 2.90125 24.6516 2.95632 25.3165C3.00996 25.9642 3.10713 26.2948 3.22658 26.5252C3.50172 27.0563 3.93358 27.4893 4.46325 27.7651C4.69317 27.8849 5.02289 27.9823 5.66877 28.0361C6.332 28.0913 7.19056 28.0925 8.45353 28.0925H8.70003V23.7312C8.70003 20.5197 11.2968 17.9162 14.5001 17.9162C17.7032 17.9162 20.3 20.5197 20.3 23.7312V28.0925H20.5465C21.8094 28.0925 22.668 28.0913 23.3312 28.0361C23.977 27.9823 24.3068 27.8849 24.5367 27.7651C25.0664 27.4893 25.4982 27.0563 25.7734 26.5252C25.8929 26.2948 25.9901 25.9642 26.0437 25.3165C26.0987 24.6516 26.1 23.7908 26.1 22.5246V15.2544C26.1 14.0049 26.0888 13.6409 26.0043 13.3193C25.9231 13.0101 25.7915 12.7164 25.6149 12.4501C25.4314 12.1733 25.1673 11.9229 24.236 11.0929L16.6385 4.32209C16.0669 3.81268 15.7001 3.48716 15.4005 3.2597C15.1156 3.04343 14.9816 2.98775 14.9055 2.96549ZM13.2837 0.173949C14.0781 -0.057983 14.9219 -0.057983 15.7163 0.173949C16.2674 0.334894 16.7245 0.617911 17.1509 0.941633C17.5526 1.24651 18.005 1.64963 18.5258 2.11382L26.1626 8.91978L26.2844 9.02823C27.0409 9.70164 27.6122 10.2104 28.03 10.8405C28.3831 11.3731 28.6463 11.9605 28.8087 12.579C29.0008 13.3107 29.0005 14.0768 28.9999 15.091V15.2544V22.5857C28.9999 23.7756 28.9999 24.7577 28.9337 25.5573C28.8649 26.3878 28.7172 27.1509 28.3469 27.8656C27.7966 28.9277 26.9328 29.7935 25.8736 30.3452C25.1607 30.7165 24.3997 30.8647 23.5712 30.9336C22.7737 31 21.7942 31 20.6073 31H20.0173H19.983H19.9782C19.8036 31 19.5961 31 19.413 30.9847C19.1989 30.967 18.8924 30.9212 18.5723 30.7545C18.1751 30.5476 17.8511 30.2228 17.6448 29.8246C17.4786 29.5036 17.4329 29.1963 17.4151 28.9816C17.3999 28.7983 17.3999 28.5901 17.3999 28.415V28.4101L17.4 23.7312C17.4 22.1254 16.1016 20.8237 14.5001 20.8237C12.8984 20.8237 11.6 22.1254 11.6 23.7312L11.6 28.4101V28.4127C11.6001 28.5882 11.6001 28.7974 11.5848 28.9816C11.567 29.1963 11.5214 29.5036 11.3551 29.8246C11.1488 30.2228 10.8249 30.5476 10.4276 30.7545C10.1076 30.9212 9.80106 30.967 9.58691 30.9847C9.40393 31 9.19637 31 9.02174 31H9.01688H8.98278H8.39268C7.2058 31 6.22626 31 5.42875 30.9336C4.6003 30.8647 3.83929 30.7165 3.12642 30.3452C2.0671 29.7935 1.20337 28.9277 0.653101 27.8656C0.282803 27.1509 0.135093 26.3878 0.0662908 25.5573C7.25538e-05 24.7578 8.4523e-05 23.7756 9.90222e-05 22.5858L9.9024e-05 22.5857V15.2544L5.54653e-05 15.091C-0.00048103 14.0768 -0.000872644 13.3107 0.19128 12.579C0.353722 11.9605 0.616822 11.3731 0.969982 10.8405C1.38775 10.2104 1.95918 9.70164 2.71559 9.02824L2.83738 8.91978L10.4742 2.11384C10.9951 1.64963 11.4474 1.24651 11.849 0.941633C12.2755 0.617911 12.7325 0.334894 13.2837 0.173949Z" fill="black"/>
<path d="M14.9055 2.96549C14.6407 2.88818 14.3594 2.88818 14.0945 2.96549C14.0184 2.98775 13.8844 3.04343 13.5995 3.2597C13.2999 3.48716 12.9331 3.81268 12.3615 4.32209L4.76402 11.0929C3.83262 11.9229 3.56858 12.1733 3.38501 12.4501C3.20843 12.7164 3.07689 13.0101 2.99567 13.3193C2.91124 13.6409 2.90008 14.0049 2.90008 15.2544V22.5246C2.90008 23.7908 2.90125 24.6516 2.95632 25.3165C3.00996 25.9642 3.10713 26.2948 3.22658 26.5252C3.50172 27.0563 3.93358 27.4893 4.46325 27.7651C4.69317 27.8849 5.02289 27.9823 5.66877 28.0361C6.332 28.0913 7.19056 28.0925 8.45353 28.0925H8.70003V23.7312C8.70003 20.5197 11.2968 17.9162 14.5001 17.9162C17.7032 17.9162 20.3 20.5197 20.3 23.7312V28.0925H20.5465C21.8094 28.0925 22.668 28.0913 23.3312 28.0361C23.977 27.9823 24.3068 27.8849 24.5367 27.7651C25.0664 27.4893 25.4982 27.0563 25.7734 26.5252C25.8929 26.2948 25.9901 25.9642 26.0437 25.3165C26.0987 24.6516 26.1 23.7908 26.1 22.5246V15.2544C26.1 14.0049 26.0888 13.6409 26.0043 13.3193C25.9231 13.0101 25.7915 12.7164 25.6149 12.4501C25.4314 12.1733 25.1673 11.9229 24.236 11.0929L16.6385 4.32209C16.0669 3.81268 15.7001 3.48716 15.4005 3.2597C15.1156 3.04343 14.9816 2.98775 14.9055 2.96549ZM13.2837 0.173949C14.0781 -0.057983 14.9219 -0.057983 15.7163 0.173949C16.2674 0.334894 16.7245 0.617911 17.1509 0.941633C17.5526 1.24651 18.005 1.64963 18.5258 2.11382L26.1626 8.91978L26.2844 9.02823C27.0409 9.70164 27.6122 10.2104 28.03 10.8405C28.3831 11.3731 28.6463 11.9605 28.8087 12.579C29.0008 13.3107 29.0005 14.0768 28.9999 15.091V15.2544V22.5857C28.9999 23.7756 28.9999 24.7577 28.9337 25.5573C28.8649 26.3878 28.7172 27.1509 28.3469 27.8656C27.7966 28.9277 26.9328 29.7935 25.8736 30.3452C25.1607 30.7165 24.3997 30.8647 23.5712 30.9336C22.7737 31 21.7942 31 20.6073 31H20.0173H19.983H19.9782C19.8036 31 19.5961 31 19.413 30.9847C19.1989 30.967 18.8924 30.9212 18.5723 30.7545C18.1751 30.5476 17.8511 30.2228 17.6448 29.8246C17.4786 29.5036 17.4329 29.1963 17.4151 28.9816C17.3999 28.7983 17.3999 28.5901 17.3999 28.415V28.4101L17.4 23.7312C17.4 22.1254 16.1016 20.8237 14.5001 20.8237C12.8984 20.8237 11.6 22.1254 11.6 23.7312L11.6 28.4101V28.4127C11.6001 28.5882 11.6001 28.7974 11.5848 28.9816C11.567 29.1963 11.5214 29.5036 11.3551 29.8246C11.1488 30.2228 10.8249 30.5476 10.4276 30.7545C10.1076 30.9212 9.80106 30.967 9.58691 30.9847C9.40393 31 9.19637 31 9.02174 31H9.01688H8.98278H8.39268C7.2058 31 6.22626 31 5.42875 30.9336C4.6003 30.8647 3.83929 30.7165 3.12642 30.3452C2.0671 29.7935 1.20337 28.9277 0.653101 27.8656C0.282803 27.1509 0.135093 26.3878 0.0662908 25.5573C7.25538e-05 24.7578 8.4523e-05 23.7756 9.90222e-05 22.5858L9.9024e-05 22.5857V15.2544L5.54653e-05 15.091C-0.00048103 14.0768 -0.000872644 13.3107 0.19128 12.579C0.353722 11.9605 0.616822 11.3731 0.969982 10.8405C1.38775 10.2104 1.95918 9.70164 2.71559 9.02824L2.83738 8.91978L10.4742 2.11384C10.9951 1.64963 11.4474 1.24651 11.849 0.941633C12.2755 0.617911 12.7325 0.334894 13.2837 0.173949Z" stroke="black"/>
</svg>
