<svg width="18" height="20" viewBox="0 0 18 20" fill="none" xmlns="http://www.w3.org/2000/svg">
<path d="M15 14.1436C14.24 14.1436 13.56 14.445 13.04 14.9171L5.91 10.7484C5.96 10.5173 6 10.2863 6 10.0452C6 9.80412 5.96 9.57308 5.91 9.34204L12.96 5.21346C13.5 5.71572 14.21 6.02712 15 6.02712C15.7956 6.02712 16.5587 5.70962 17.1213 5.14447C17.6839 4.57932 18 3.81281 18 3.01356C18 2.21431 17.6839 1.4478 17.1213 0.882652C16.5587 0.317499 15.7956 0 15 0C14.2044 0 13.4413 0.317499 12.8787 0.882652C12.3161 1.4478 12 2.21431 12 3.01356C12 3.25465 12.04 3.48569 12.09 3.71673L5.04 7.8453C4.5 7.34304 3.79 7.03164 3 7.03164C2.20435 7.03164 1.44129 7.34914 0.87868 7.91429C0.316071 8.47945 0 9.24596 0 10.0452C0 10.8445 0.316071 11.611 0.87868 12.1761C1.44129 12.7413 2.20435 13.0588 3 13.0588C3.79 13.0588 4.5 12.7474 5.04 12.2451L12.16 16.4139C12.11 16.6248 12.08 16.8458 12.08 17.0768C12.08 18.6941 13.39 20 15 20C16.61 20 17.92 18.6941 17.92 17.0768C17.92 16.2989 17.6124 15.5528 17.0648 15.0028C16.5171 14.4527 15.7744 14.1436 15 14.1436Z" fill="white"/>
</svg>
