<svg width="13" height="10" viewBox="0 0 13 10" fill="none" xmlns="http://www.w3.org/2000/svg">
<path d="M12.6841 8.19602C11.0653 7.98768 10.9435 7.89132 10.9435 7.89132C11.431 5.96417 10.2435 3.95629 8.55907 2.7974C6.3153 1.25568 2.9059 2.37551 0.249627 0.0316854C-0.369129 -0.515208 -0.00975045 6.1647 3.31528 8.69603C5.74655 10.5451 8.60907 9.97732 9.39346 9.67523C10.106 9.39918 10.6028 8.79239 10.6028 8.79239C11.8997 9.13094 12.5404 9.16219 12.5404 9.16219C12.9966 9.20907 13.2279 8.26633 12.6841 8.19602ZM9.81534 8.38873C7.38719 7.78194 5.27467 6.27929 3.90591 5.10216C3.79341 5.00581 3.95591 4.86257 4.07779 4.94591C5.42467 5.87042 7.48094 7.02931 10.1185 7.7559C10.1247 7.96684 9.97784 8.26893 9.81534 8.38873Z" fill="#838383"/>
</svg>
