<svg width="26" height="31" viewBox="0 0 26 31" fill="none" xmlns="http://www.w3.org/2000/svg">
<path fill-rule="evenodd" clip-rule="evenodd" d="M13 3.26316C10.3075 3.26316 8.125 5.45461 8.125 8.15789C8.125 10.8612 10.3075 13.0526 13 13.0526C15.6925 13.0526 17.875 10.8612 17.875 8.15789C17.875 5.45461 15.6925 3.26316 13 3.26316ZM4.875 8.15789C4.875 3.65242 8.51269 0 13 0C17.4873 0 21.125 3.65242 21.125 8.15789C21.125 12.6633 17.4873 16.3158 13 16.3158C8.51269 16.3158 4.875 12.6633 4.875 8.15789ZM5.61615 22.3957C3.90299 23.1596 3.25 24.1242 3.25 25.2895C3.25 25.6543 3.31461 25.8609 3.40808 26.0106C3.5016 26.1604 3.72473 26.4141 4.32606 26.6872C5.61132 27.271 8.15115 27.7368 13 27.7368C17.8488 27.7368 20.3887 27.271 21.6739 26.6872C22.2753 26.4141 22.4985 26.1604 22.5919 26.0106C22.6853 25.8609 22.75 25.6543 22.75 25.2895C22.75 24.1242 22.0971 23.1596 20.3838 22.3957C18.6248 21.6116 16.0423 21.2105 13 21.2105C9.95767 21.2105 7.37518 21.6116 5.61615 22.3957ZM4.29718 19.4135C6.65509 18.3621 9.76007 17.9474 13 17.9474C16.2399 17.9474 19.345 18.3621 21.7029 19.4135C24.1066 20.4851 26 22.3758 26 25.2895C26 26.0509 25.8615 26.9175 25.3456 27.7439C24.8297 28.5699 24.0372 29.1953 23.0136 29.6603C21.0488 30.5528 17.9012 31 13 31C8.09885 31 4.95118 30.5528 2.98644 29.6603C1.96277 29.1953 1.17028 28.5699 0.65442 27.7439C0.138515 26.9175 0 26.0509 0 25.2895C0 22.3758 1.89339 20.4851 4.29718 19.4135Z" fill="black"/>
</svg>
