<svg width="31" height="31" viewBox="0 0 31 31" fill="black" xmlns="http://www.w3.org/2000/svg">
<path fill-rule="evenodd" clip-rule="evenodd" d="M13.7778 3.44445C8.07084 3.44445 3.44445 8.07084 3.44445 13.7778C3.44445 19.4847 8.07084 24.1111 13.7778 24.1111C19.4847 24.1111 24.1111 19.4847 24.1111 13.7778C24.1111 8.07084 19.4847 3.44445 13.7778 3.44445ZM0 13.7778C0 6.16853 6.16853 0 13.7778 0C21.3871 0 27.5556 6.16853 27.5556 13.7778C27.5556 16.9617 26.4756 19.8934 24.6621 22.2263L30.4956 28.06C31.1681 28.7326 31.1681 29.8231 30.4956 30.4956C29.8231 31.1681 28.7326 31.1681 28.06 30.4956L22.2263 24.6621C19.8934 26.4756 16.9617 27.5556 13.7778 27.5556C6.16853 27.5556 0 21.3871 0 13.7778Z"/>
</svg>
