<svg width="28" height="29" viewBox="0 0 28 29" fill="none" xmlns="http://www.w3.org/2000/svg">
<path d="M13.7282 18.55C15.965 18.55 17.7782 16.7367 17.7782 14.5C17.7782 12.2632 15.965 10.45 13.7282 10.45C11.4915 10.45 9.67822 12.2632 9.67822 14.5C9.67822 16.7367 11.4915 18.55 13.7282 18.55Z" stroke="#838383" stroke-width="3"/>
<path d="M16.1108 1.2052C15.6153 1 14.9862 1 13.728 1C12.4698 1 11.8407 1 11.3453 1.2052C11.0175 1.34089 10.7196 1.53986 10.4688 1.79073C10.2179 2.04159 10.0189 2.33944 9.88325 2.66725C9.75905 2.9683 9.7091 3.32065 9.6902 3.8323C9.68179 4.20219 9.5795 4.56386 9.39295 4.88337C9.20639 5.20287 8.94169 5.46972 8.6237 5.65885C8.30091 5.83981 7.93742 5.93574 7.56737 5.93763C7.19732 5.93952 6.83287 5.8473 6.50825 5.66965C6.05465 5.42935 5.7266 5.29705 5.40125 5.25385C4.69158 5.16053 3.97389 5.35281 3.40595 5.78845C2.98205 6.1165 2.66615 6.66055 2.03705 7.75C1.40795 8.83945 1.09205 9.3835 1.0232 9.91675C0.976807 10.2684 1.00014 10.6257 1.09187 10.9683C1.1836 11.3108 1.34192 11.632 1.5578 11.9134C1.7576 12.1726 2.03705 12.39 2.4704 12.6627C3.10895 13.0636 3.51935 13.7467 3.51935 14.5C3.51935 15.2533 3.10895 15.9364 2.4704 16.336C2.03705 16.61 1.75625 16.8274 1.5578 17.0866C1.34192 17.368 1.1836 17.6892 1.09187 18.0317C1.00014 18.3743 0.976807 18.7316 1.0232 19.0833C1.0934 19.6152 1.40795 20.1606 2.0357 21.25C2.66615 22.3395 2.9807 22.8835 3.40595 23.2115C3.68734 23.4274 4.0085 23.5858 4.35109 23.6775C4.69368 23.7692 5.05099 23.7925 5.4026 23.7462C5.7266 23.703 6.05465 23.5707 6.50825 23.3304C6.83287 23.1527 7.19732 23.0605 7.56737 23.0624C7.93742 23.0643 8.30091 23.1602 8.6237 23.3412C9.27575 23.7192 9.6632 24.4144 9.6902 25.1677C9.7091 25.6807 9.7577 26.0317 9.88325 26.3327C10.0189 26.6606 10.2179 26.9584 10.4688 27.2093C10.7196 27.4601 11.0175 27.6591 11.3453 27.7948C11.8407 28 12.4698 28 13.728 28C14.9862 28 15.6153 28 16.1108 27.7948C16.4386 27.6591 16.7365 27.4601 16.9873 27.2093C17.2382 26.9584 17.4372 26.6606 17.5728 26.3327C17.697 26.0317 17.747 25.6807 17.7659 25.1677C17.7929 24.4144 18.1803 23.7178 18.8324 23.3412C19.1552 23.1602 19.5187 23.0643 19.8887 23.0624C20.2588 23.0605 20.6232 23.1527 20.9478 23.3304C21.4014 23.5707 21.7295 23.703 22.0535 23.7462C22.4051 23.7925 22.7624 23.7692 23.105 23.6775C23.4476 23.5858 23.7688 23.4274 24.0501 23.2115C24.4754 22.8848 24.7899 22.3395 25.419 21.25C26.0481 20.1606 26.364 19.6165 26.4329 19.0833C26.4793 18.7316 26.456 18.3743 26.3642 18.0317C26.2725 17.6892 26.1142 17.368 25.8983 17.0866C25.6985 16.8274 25.4191 16.6101 24.9857 16.3374C24.6694 16.1451 24.4072 15.8756 24.2238 15.5542C24.0403 15.2328 23.9415 14.8701 23.9367 14.5C23.9367 13.7467 24.3472 13.0636 24.9857 12.664C25.4191 12.39 25.6998 12.1726 25.8983 11.9134C26.1142 11.632 26.2725 11.3108 26.3642 10.9683C26.456 10.6257 26.4793 10.2684 26.4329 9.91675C26.3627 9.38485 26.0481 8.83945 25.4204 7.75C24.7899 6.66055 24.4754 6.1165 24.0501 5.78845C23.7688 5.57257 23.4476 5.41425 23.105 5.32252C22.7624 5.23079 22.4051 5.20746 22.0535 5.25385C21.7295 5.29705 21.4014 5.42935 20.9465 5.66965C20.622 5.84706 20.2578 5.93914 19.8881 5.93725C19.5183 5.93536 19.155 5.83957 18.8324 5.65885C18.5144 5.46972 18.2497 5.20287 18.0632 4.88337C17.8766 4.56386 17.7743 4.20219 17.7659 3.8323C17.747 3.3193 17.6984 2.9683 17.5728 2.66725C17.4372 2.33944 17.2382 2.04159 16.9873 1.79073C16.7365 1.53986 16.4386 1.34089 16.1108 1.2052Z" stroke="#838383" stroke-width="3"/>
</svg>
