<svg width="19" height="20" viewBox="0 0 19 20" fill="none" xmlns="http://www.w3.org/2000/svg">
<path d="M13 4.66045e-09C13.7652 -4.26217e-05 14.5015 0.292325 15.0583 0.817284C15.615 1.34224 15.9501 2.06011 15.995 2.824L16 3C16.7956 3 17.5587 3.31607 18.1213 3.87868C18.6839 4.44129 19 5.20435 19 6C19.0001 7.55238 18.3984 9.04436 17.3215 10.1625C16.2446 11.2806 14.7763 11.9378 13.225 11.996L13 12H9L9.15 12.005C9.62617 12.0408 10.0738 12.2458 10.412 12.5829C10.7502 12.92 10.9567 13.3669 10.994 13.843L11 14V18C11.0002 18.5046 10.8096 18.9906 10.4665 19.3605C10.1234 19.7305 9.65316 19.9572 9.15 19.995L9 20H7C6.49542 20.0002 6.00943 19.8096 5.63945 19.4665C5.26947 19.1234 5.04284 18.6532 5.005 18.15L5 18V14C4.99984 13.4954 5.19041 13.0094 5.5335 12.6395C5.87659 12.2695 6.34685 12.0428 6.85 12.005L7 12V11C7.00003 10.7551 7.08996 10.5187 7.25272 10.3356C7.41547 10.1526 7.63975 10.0357 7.883 10.007L8 10H13C14.0609 10 15.0783 9.57857 15.8284 8.82843C16.5786 8.07828 17 7.06087 17 6C17 5.75507 16.91 5.51866 16.7473 5.33563C16.5845 5.15259 16.3603 5.03566 16.117 5.007L16 5L15.995 5.176C15.9519 5.90959 15.6411 6.60186 15.1215 7.12148C14.6019 7.6411 13.9096 7.95193 13.176 7.995L13 8H3C2.23479 8.00004 1.49849 7.70767 0.941739 7.18272C0.384993 6.65776 0.0498925 5.93989 0.00500012 5.176L4.66045e-09 5V3C-4.26217e-05 2.23479 0.292325 1.49849 0.817284 0.941739C1.34224 0.384993 2.06011 0.0498925 2.824 0.00500012L3 4.66045e-09H13Z" fill="#C58AB9"/>
</svg>
