<svg width="28" height="31" viewBox="0 0 28 31" fill="none" xmlns="http://www.w3.org/2000/svg">
<path d="M24.8 27.9H3.1V10.85H24.8M20.15 0V3.1H7.75V0H4.65V3.1H3.1C1.3795 3.1 0 4.4795 0 6.2V27.9C0 28.7222 0.326606 29.5107 0.907969 30.092C1.48933 30.6734 2.27783 31 3.1 31H24.8C25.6222 31 26.4107 30.6734 26.992 30.092C27.5734 29.5107 27.9 28.7222 27.9 27.9V6.2C27.9 5.37783 27.5734 4.58933 26.992 4.00797C26.4107 3.42661 25.6222 3.1 24.8 3.1H23.25V0M21.7 17.05H13.95V24.8H21.7V17.05Z" fill="white"/>
</svg>
