<svg width="31" height="31" viewBox="0 0 31 31" fill="none" xmlns="http://www.w3.org/2000/svg">
<path d="M18.8945 18.8945L6.2 24.8L12.1055 12.1055L24.8 6.2M15.5 0C13.4645 0 11.449 0.400919 9.56841 1.17987C7.68786 1.95882 5.97915 3.10054 4.53984 4.53984C1.63303 7.44666 0 11.3891 0 15.5C0 19.6109 1.63303 23.5533 4.53984 26.4602C5.97915 27.8995 7.68786 29.0412 9.56841 29.8201C11.449 30.5991 13.4645 31 15.5 31C19.6109 31 23.5533 29.367 26.4602 26.4602C29.367 23.5533 31 19.6109 31 15.5C31 13.4645 30.5991 11.449 29.8201 9.56841C29.0412 7.68786 27.8995 5.97915 26.4602 4.53984C25.0208 3.10054 23.3121 1.95882 21.4316 1.17987C19.551 0.400919 17.5355 0 15.5 0ZM15.5 13.795C15.0478 13.795 14.6141 13.9746 14.2944 14.2944C13.9746 14.6141 13.795 15.0478 13.795 15.5C13.795 15.9522 13.9746 16.3859 14.2944 16.7056C14.6141 17.0254 15.0478 17.205 15.5 17.205C15.9522 17.205 16.3859 17.0254 16.7056 16.7056C17.0254 16.3859 17.205 15.9522 17.205 15.5C17.205 15.0478 17.0254 14.6141 16.7056 14.2944C16.3859 13.9746 15.9522 13.795 15.5 13.795Z" fill="white"/>
</svg>
