<svg width="32" height="32" viewBox="0 0 32 32" fill="black" xmlns="http://www.w3.org/2000/svg">
<path d="M31.2753 15.754L17.691 2.17665L16.7804 1.2661C16.573 1.06001 16.2924 0.944336 16 0.944336C15.7075 0.944336 15.4269 1.06001 15.2195 1.2661L0.72456 15.754C0.511974 15.9658 0.343964 16.218 0.230446 16.4957C0.116929 16.7735 0.0602048 17.0711 0.0636223 17.3712C0.0776848 18.6087 1.10776 19.5966 2.34526 19.5966H3.8394V31.047H28.1605V19.5966H29.6863C30.2874 19.5966 30.8535 19.361 31.2789 18.9356C31.4883 18.7268 31.6543 18.4786 31.7671 18.2052C31.88 17.9318 31.9375 17.6388 31.9363 17.3431C31.9363 16.7454 31.7007 16.1794 31.2753 15.754ZM17.9687 28.5157H14.0312V21.3438H17.9687V28.5157ZM25.6292 17.0653V28.5157H20.2187V20.5001C20.2187 19.7231 19.5894 19.0938 18.8125 19.0938H13.1875C12.4105 19.0938 11.7812 19.7231 11.7812 20.5001V28.5157H6.37065V17.0653H2.99565L16.0035 4.06806L16.8156 4.88017L29.0078 17.0653H25.6292Z" />
</svg>
