<svg width="30" height="33" viewBox="0 0 30 33" fill="none" xmlns="http://www.w3.org/2000/svg">
<path d="M13.108 1.69756C13.6708 1.24606 14.3707 1 15.0922 1C15.8137 1 16.5136 1.24606 17.0764 1.69756L27.9978 10.4601C28.3681 10.7572 28.667 11.1337 28.8724 11.5617C29.0778 11.9898 29.1844 12.4585 29.1844 12.9333V28.8293C29.1844 29.6702 28.8503 30.4767 28.2557 31.0713C27.6611 31.6659 26.8546 32 26.0136 32H21.786C20.9451 32 20.1386 31.6659 19.5439 31.0713C18.9493 30.4767 18.6152 29.6702 18.6152 28.8293V20.3739C18.6152 20.0936 18.5039 19.8248 18.3057 19.6266C18.1075 19.4284 17.8386 19.317 17.5583 19.317H12.6261C12.3457 19.317 12.0769 19.4284 11.8787 19.6266C11.6805 19.8248 11.5691 20.0936 11.5691 20.3739V28.8293C11.5691 29.6702 11.2351 30.4767 10.6405 31.0713C10.0458 31.6659 9.23933 32 8.3984 32H4.17074C3.33005 32 2.52378 31.6661 1.92919 31.0718C1.3346 30.4775 1.00037 29.6714 1 28.8307V12.9347C1 11.9736 1.43686 11.0632 2.18656 10.4615L13.108 1.69897V1.69756ZM15.7531 3.34635C15.5656 3.19608 15.3325 3.1142 15.0922 3.1142C14.8519 3.1142 14.6188 3.19608 14.4313 3.34635L3.50982 12.1089C3.38629 12.2079 3.28658 12.3333 3.21804 12.476C3.1495 12.6187 3.11389 12.775 3.11383 12.9333V28.8293C3.11383 29.4141 3.58733 29.8862 4.17074 29.8862H8.3984C8.67871 29.8862 8.94754 29.7748 9.14575 29.5766C9.34396 29.3784 9.45532 29.1096 9.45532 28.8293V20.3739C9.45532 19.533 9.78938 18.7265 10.384 18.1319C10.9786 17.5373 11.7851 17.2032 12.6261 17.2032H17.5583C18.3993 17.2032 19.2058 17.5373 19.8004 18.1319C20.395 18.7265 20.7291 19.533 20.7291 20.3739V28.8293C20.7291 29.4141 21.2026 29.8862 21.786 29.8862H26.0136C26.294 29.8862 26.5628 29.7748 26.761 29.5766C26.9592 29.3784 27.0706 29.1096 27.0706 28.8293V12.9333C27.0707 12.7751 27.0353 12.6189 26.967 12.4762C26.8987 12.3335 26.7992 12.208 26.676 12.1089L15.7545 3.34635H15.7531Z" fill="black" stroke="black"/>
</svg>
