<svg width="29" height="31" viewBox="0 0 29 31" fill="none" xmlns="http://www.w3.org/2000/svg">
<path d="M16.0771 0.697591C15.5143 0.246075 14.8144 0 14.0928 0C13.3713 0 12.6714 0.246075 12.1086 0.697591L1.18662 9.45911C0.816275 9.75622 0.517384 10.1327 0.312005 10.5608C0.106625 10.9889 6.61317e-07 11.4576 0 11.9324V27.8291C0 28.6701 0.334075 29.4766 0.928732 30.0713C1.52339 30.6659 2.32992 31 3.17089 31H6.6941C7.53507 31 8.34159 30.6659 8.93625 30.0713C9.53091 29.4766 9.86498 28.6701 9.86498 27.8291V20.0781C9.86498 19.1056 10.6542 18.3165 11.6266 18.3165H16.5591C17.5315 18.3165 18.3207 19.1056 18.3207 20.0781V27.8291C18.3207 28.6701 18.6548 29.4766 19.2494 30.0713C19.8441 30.6659 20.6506 31 21.4916 31H25.0148C25.8557 31 26.6623 30.6659 27.2569 30.0713C27.8516 29.4766 28.1857 28.6701 28.1857 27.8291V11.9324C28.1857 11.4576 28.079 10.9889 27.8737 10.5608C27.6683 10.1327 27.3694 9.75622 26.999 9.45911L16.0771 0.697591Z" fill="white"/>
</svg>
