<svg width="28" height="31" viewBox="0 0 28 31" fill="none" xmlns="http://www.w3.org/2000/svg">
<path d="M14 17.05C17.7271 17.05 21.1167 18.1257 23.6102 19.64C24.8547 20.3995 25.9187 21.2908 26.6871 22.2595C27.4431 23.2143 28 24.3551 28 25.575C28 26.8847 27.3607 27.917 26.4398 28.6533C25.5687 29.3508 24.4191 29.8127 23.198 30.1351C20.7433 30.7814 17.4673 31 14 31C10.5327 31 7.25667 30.783 4.802 30.1351C3.58089 29.8127 2.43133 29.3508 1.56022 28.6533C0.637777 27.9155 0 26.8847 0 25.575C0 24.3551 0.556889 23.2143 1.31289 22.2595C2.08133 21.2908 3.14378 20.3995 4.38978 19.64C6.88333 18.1257 10.2744 17.05 14 17.05ZM14 0C16.0628 0 18.0411 0.816515 19.4997 2.26992C20.9583 3.72333 21.7778 5.69457 21.7778 7.75C21.7778 9.80543 20.9583 11.7767 19.4997 13.2301C18.0411 14.6835 16.0628 15.5 14 15.5C11.9372 15.5 9.9589 14.6835 8.50028 13.2301C7.04166 11.7767 6.22222 9.80543 6.22222 7.75C6.22222 5.69457 7.04166 3.72333 8.50028 2.26992C9.9589 0.816515 11.9372 0 14 0Z" fill="white"/>
</svg>
