<svg width="28" height="31" viewBox="0 0 28 31" fill="none" xmlns="http://www.w3.org/2000/svg">
<path fill-rule="evenodd" clip-rule="evenodd" d="M13.95 17.05C17.6638 17.05 21.0412 18.1257 23.5259 19.64C24.7659 20.3995 25.8261 21.2908 26.5918 22.2596C27.3451 23.2143 27.9 24.3551 27.9 25.575C27.9 26.8847 27.2629 27.917 26.3453 28.6533C25.4773 29.3508 24.3319 29.8127 23.1151 30.1351C20.6693 30.7814 17.4049 31 13.95 31C10.495 31 7.23075 30.783 4.78485 30.1351C3.5681 29.8127 2.42265 29.3508 1.55465 28.6533C0.6355 27.9155 0 26.8847 0 25.575C0 24.3551 0.5549 23.2143 1.3082 22.2596C2.0739 21.2908 3.13255 20.3995 4.3741 19.64C6.85875 18.1257 10.2378 17.05 13.95 17.05ZM13.95 20.15C10.8144 20.15 7.99335 21.0645 5.9892 22.2874C4.98635 22.8981 4.22995 23.5615 3.7417 24.1815C3.2395 24.817 3.1 25.2975 3.1 25.575C3.1 25.7641 3.15735 25.9641 3.49525 26.2353C3.8812 26.5453 4.55235 26.8661 5.57845 27.1374C7.62135 27.6799 10.557 27.9 13.95 27.9C17.3445 27.9 20.2786 27.6783 22.32 27.1374C23.3476 26.8661 24.0188 26.5453 24.4048 26.2353C24.7427 25.9641 24.8 25.7641 24.8 25.575C24.8 25.296 24.6605 24.817 24.1598 24.1815C23.67 23.5615 22.9136 22.8981 21.9108 22.2874C19.9066 21.0629 17.0856 20.15 13.95 20.15ZM13.95 0C16.0054 0 17.9767 0.816515 19.4301 2.26992C20.8835 3.72333 21.7 5.69457 21.7 7.75C21.7 9.80543 20.8835 11.7767 19.4301 13.2301C17.9767 14.6835 16.0054 15.5 13.95 15.5C11.8946 15.5 9.92333 14.6835 8.46992 13.2301C7.01652 11.7767 6.2 9.80543 6.2 7.75C6.2 5.69457 7.01652 3.72333 8.46992 2.26992C9.92333 0.816515 11.8946 0 13.95 0ZM13.95 3.1C13.3394 3.1 12.7347 3.22028 12.1705 3.45396C11.6064 3.68764 11.0937 4.03016 10.662 4.46195C10.2302 4.89375 9.88764 5.40636 9.65396 5.97052C9.42027 6.53469 9.3 7.13935 9.3 7.75C9.3 8.36065 9.42027 8.96531 9.65396 9.52948C9.88764 10.0936 10.2302 10.6063 10.662 11.038C11.0937 11.4698 11.6064 11.8124 12.1705 12.046C12.7347 12.2797 13.3394 12.4 13.95 12.4C15.1833 12.4 16.366 11.9101 17.238 11.038C18.1101 10.166 18.6 8.98326 18.6 7.75C18.6 6.51674 18.1101 5.334 17.238 4.46195C16.366 3.58991 15.1833 3.1 13.95 3.1Z" fill="black"/>
</svg>
