<svg width="31" height="31" viewBox="0 0 31 31" fill="none" xmlns="http://www.w3.org/2000/svg">
<path d="M13.7883 3.10973e-08C16.3775 -0.000173818 18.9143 0.728584 21.1086 2.10287C23.3029 3.47716 25.066 5.44145 26.196 7.77095C27.3261 10.1005 27.7775 12.701 27.4985 15.2751C27.2196 17.8492 26.2216 20.2927 24.6188 22.326L30.5434 28.2507C30.8389 28.5566 31.0025 28.9664 30.9988 29.3918C30.9951 29.8172 30.8245 30.2241 30.5237 30.5248C30.2229 30.8256 29.816 30.9962 29.3906 30.9999C28.9653 31.0036 28.5555 30.8401 28.2495 30.5446L22.3249 24.62C20.5979 25.981 18.5704 26.9093 16.4116 27.3274C14.2529 27.7456 12.0254 27.6414 9.91514 27.0236C7.80484 26.4058 5.87288 25.2922 4.28045 23.7759C2.68802 22.2596 1.48129 20.3845 0.760947 18.3069C0.0406001 16.2294 -0.172477 14.0097 0.139494 11.8331C0.451464 9.65647 1.27943 7.58601 2.55433 5.79444C3.82922 4.00288 5.51407 2.54218 7.4683 1.5342C9.42253 0.526215 11.5895 0.000187362 13.7883 3.10973e-08ZM13.7883 3.24459C10.9917 3.24459 8.30952 4.35557 6.33196 6.33313C4.3544 8.31069 3.24342 10.9928 3.24342 13.7895C3.24342 16.5862 4.3544 19.2684 6.33196 21.2459C8.30952 23.2235 10.9917 24.3345 13.7883 24.3345C16.585 24.3345 19.2672 23.2235 21.2447 21.2459C23.2223 19.2684 24.3333 16.5862 24.3333 13.7895C24.3333 10.9928 23.2223 8.31069 21.2447 6.33313C19.2672 4.35557 16.585 3.24459 13.7883 3.24459ZM13.7883 4.86689C16.1548 4.86689 18.4243 5.80695 20.0976 7.48027C21.7709 9.15359 22.711 11.4231 22.711 13.7895C22.711 16.156 21.7709 18.4255 20.0976 20.0988C18.4243 21.7721 16.1548 22.7122 13.7883 22.7122C11.4219 22.7122 9.15241 21.7721 7.4791 20.0988C5.80578 18.4255 4.86572 16.156 4.86572 13.7895C4.86572 11.4231 5.80578 9.15359 7.4791 7.48027C9.15241 5.80695 11.4219 4.86689 13.7883 4.86689Z" fill="white"/>
</svg>
