<svg width="31" height="31" viewBox="0 0 31 31" fill="none" xmlns="http://www.w3.org/2000/svg">
<path fill-rule="evenodd" clip-rule="evenodd" d="M13.7883 3.10973e-08C11.5895 0.000187362 9.42253 0.526215 7.4683 1.5342C5.51407 2.54218 3.82922 4.00288 2.55433 5.79444C1.27943 7.58601 0.451464 9.65647 0.139494 11.8331C-0.172477 14.0097 0.0406001 16.2294 0.760947 18.3069C1.48129 20.3845 2.68802 22.2596 4.28045 23.7759C5.87288 25.2922 7.80484 26.4058 9.91514 27.0236C12.0254 27.6414 14.2529 27.7456 16.4116 27.3274C18.5704 26.9093 20.5979 25.981 22.3249 24.62L28.2495 30.5446C28.5555 30.8401 28.9653 31.0036 29.3906 30.9999C29.816 30.9962 30.2229 30.8256 30.5237 30.5248C30.8245 30.2241 30.9951 29.8172 30.9988 29.3918C31.0025 28.9664 30.8389 28.5566 30.5434 28.2507L24.6188 22.326C26.2216 20.2927 27.2196 17.8492 27.4985 15.2751C27.7775 12.701 27.3261 10.1005 26.196 7.77095C25.066 5.44145 23.3029 3.47716 21.1086 2.10287C18.9144 0.728584 16.3775 -0.000173818 13.7883 3.10973e-08ZM3.24342 13.7895C3.24342 10.9928 4.3544 8.31069 6.33196 6.33313C8.30952 4.35557 10.9917 3.24459 13.7883 3.24459C16.585 3.24459 19.2672 4.35557 21.2447 6.33313C23.2223 8.31069 24.3333 10.9928 24.3333 13.7895C24.3333 16.5862 23.2223 19.2684 21.2447 21.2459C19.2672 23.2235 16.585 24.3344 13.7883 24.3344C10.9917 24.3344 8.30952 23.2235 6.33196 21.2459C4.3544 19.2684 3.24342 16.5862 3.24342 13.7895Z" fill="black"/>
</svg>
