<svg width="19" height="19" viewBox="0 0 19 19" fill="none" xmlns="http://www.w3.org/2000/svg">
<path d="M9.5 0C12.0196 0 14.4359 1.00089 16.2175 2.78249C17.9991 4.56408 19 6.98044 19 9.5C19 12.0196 17.9991 14.4359 16.2175 16.2175C14.4359 17.9991 12.0196 19 9.5 19C6.98044 19 4.56408 17.9991 2.78249 16.2175C1.00089 14.4359 0 12.0196 0 9.5C0 6.98044 1.00089 4.56408 2.78249 2.78249C4.56408 1.00089 6.98044 0 9.5 0ZM9.5 1.58333C8.46037 1.58333 7.43092 1.7881 6.47042 2.18595C5.50993 2.5838 4.6372 3.16694 3.90207 3.90207C2.41741 5.38673 1.58333 7.40037 1.58333 9.5C1.58333 11.4 2.25625 13.1417 3.3725 14.5113L14.5113 3.3725C13.1417 2.25625 11.4 1.58333 9.5 1.58333ZM9.5 17.4167C11.5996 17.4167 13.6133 16.5826 15.0979 15.0979C16.5826 13.6133 17.4167 11.5996 17.4167 9.5C17.4167 7.6 16.7437 5.85833 15.6275 4.48875L4.48875 15.6275C5.85833 16.7437 7.6 17.4167 9.5 17.4167Z" fill="white"/>
</svg>
